<svg xmlns="http://www.w3.org/2000/svg" xmlns:xlink="http://www.w3.org/1999/xlink" width="500" zoomAndPan="magnify" viewBox="0 0 375 374.999991" height="500" preserveAspectRatio="xMidYMid meet" version="1.0"><defs><g/><clipPath id="df893c6dcf"><rect x="0" width="97" y="0" height="105"/></clipPath><clipPath id="7a7c4fc7ca"><rect x="0" width="192" y="0" height="82"/></clipPath></defs><rect x="-37.5" width="450" fill="#ffffff" y="-37.499999" height="449.999989" fill-opacity="1"/><rect x="-37.5" width="450" fill="#1b1b1b" y="-37.499999" height="449.999989" fill-opacity="1"/><g transform="matrix(1, 0, 0, 1, 226, 126)"><g clip-path="url(#df893c6dcf)"><g fill="#eeede9" fill-opacity="1"><g transform="translate(0.995532, 85.10467)"><g><path d="M 3.6875 -49.53125 L 20.09375 -49.53125 L 29.796875 -21.4375 L 30 -21.4375 L 39.703125 -49.53125 L 56.125 -49.53125 L 56.125 0 L 45.296875 0 L 45.296875 -33.96875 L 45 -33.96875 L 33.40625 0 L 26.390625 0 L 14.796875 -33.96875 L 14.5 -33.96875 L 14.5 0 L 3.6875 0 Z M 3.6875 -49.53125 "/></g></g></g><g fill="#eeede9" fill-opacity="1"><g transform="translate(55.129564, 85.10467)"><g><path d="M 39.484375 -39.90625 L 26.46875 -39.90625 L 26.46875 0 L 15.5 0 L 15.5 -39.90625 L 2.484375 -39.90625 L 2.484375 -49.53125 L 39.484375 -49.53125 Z M 39.484375 -39.90625 "/></g></g></g></g></g><g transform="matrix(1, 0, 0, 1, 34, 146)"><g clip-path="url(#7a7c4fc7ca)"><g fill="#eeede9" fill-opacity="1"><g transform="translate(1.445451, 58.30632)"><g><path d="M 38.8125 -52.6875 C 36.726562 -52.6875 35.082031 -52.296875 33.875 -51.515625 C 32.675781 -50.742188 31.78125 -49.726562 31.1875 -48.46875 C 30.601562 -47.21875 29.960938 -45.390625 29.265625 -42.984375 L 25.5 -29.90625 L 49.234375 -29.90625 L 53 -42.984375 C 53.476562 -44.585938 53.796875 -45.789062 53.953125 -46.59375 C 54.117188 -47.394531 54.203125 -48.0625 54.203125 -48.59375 C 54.203125 -50.144531 53.679688 -51.210938 52.640625 -51.796875 C 51.597656 -52.390625 49.957031 -52.6875 47.71875 -52.6875 L 48.1875 -54.125 L 71.453125 -54.125 L 70.96875 -52.6875 C 68.832031 -52.6875 67.144531 -52.335938 65.90625 -51.640625 C 64.675781 -50.941406 63.753906 -49.9375 63.140625 -48.625 C 62.523438 -47.320312 61.847656 -45.414062 61.109375 -42.90625 L 51.96875 -11.21875 C 51.164062 -8.332031 50.765625 -6.460938 50.765625 -5.609375 C 50.765625 -4.003906 51.285156 -2.90625 52.328125 -2.3125 C 53.367188 -1.726562 54.90625 -1.4375 56.9375 -1.4375 L 56.53125 0 L 33.765625 0 L 34.15625 -1.4375 C 36.1875 -1.4375 37.789062 -1.769531 38.96875 -2.4375 C 40.144531 -3.113281 41.066406 -4.078125 41.734375 -5.328125 C 42.398438 -6.585938 43.054688 -8.367188 43.703125 -10.671875 L 48.4375 -27.1875 L 24.703125 -27.1875 L 21.25 -15.15625 C 20.34375 -12.050781 19.710938 -9.816406 19.359375 -8.453125 C 19.015625 -7.097656 18.84375 -6.125 18.84375 -5.53125 C 18.84375 -4.144531 19.320312 -3.113281 20.28125 -2.4375 C 21.25 -1.769531 22.722656 -1.4375 24.703125 -1.4375 L 24.296875 0 L 1.84375 0 L 1.84375 -1.4375 C 4.25 -1.4375 6.09375 -1.835938 7.375 -2.640625 C 8.65625 -3.441406 9.601562 -4.5625 10.21875 -6 C 10.832031 -7.445312 11.625 -9.859375 12.59375 -13.234375 L 21.171875 -42.984375 C 21.972656 -45.703125 22.375 -47.570312 22.375 -48.59375 C 22.375 -50.25 21.796875 -51.34375 20.640625 -51.875 C 19.492188 -52.414062 17.878906 -52.6875 15.796875 -52.6875 L 16.28125 -54.125 L 39.296875 -54.125 Z M 38.8125 -52.6875 "/></g></g></g><g fill="#eeede9" fill-opacity="1"><g transform="translate(61.82748, 58.30632)"><g><path d="M 19.40625 -27.34375 L 20.609375 -4.015625 C 24.347656 -8.609375 27.738281 -13.21875 30.78125 -17.84375 C 33.832031 -22.46875 35.359375 -25.847656 35.359375 -27.984375 C 35.359375 -28.304688 35.238281 -28.5625 35 -28.75 C 34.757812 -28.9375 34.375 -29.160156 33.84375 -29.421875 C 32.925781 -29.796875 32.203125 -30.25 31.671875 -30.78125 C 31.140625 -31.320312 30.875 -32.15625 30.875 -33.28125 C 30.875 -34.238281 31.207031 -35.035156 31.875 -35.671875 C 32.539062 -36.316406 33.300781 -36.640625 34.15625 -36.640625 C 35.125 -36.640625 36.070312 -36.238281 37 -35.4375 C 37.9375 -34.632812 38.40625 -33.113281 38.40625 -30.875 C 38.40625 -28.84375 37.789062 -26.648438 36.5625 -24.296875 C 35.332031 -21.941406 33.382812 -18.757812 30.71875 -14.75 C 27.769531 -10.363281 24.101562 -5.429688 19.71875 0.046875 C 15.34375 5.523438 11.816406 9.648438 9.140625 12.421875 C 6.035156 15.578125 3.226562 17.15625 0.71875 17.15625 C -0.132812 17.15625 -0.894531 16.847656 -1.5625 16.234375 C -2.226562 15.617188 -2.5625 14.910156 -2.5625 14.109375 C -2.5625 13.097656 -2.132812 12.148438 -1.28125 11.265625 C -0.425781 10.378906 0.535156 9.9375 1.609375 9.9375 C 2.085938 9.9375 2.429688 10.070312 2.640625 10.34375 C 2.859375 10.613281 3.128906 11.015625 3.453125 11.546875 C 3.828125 12.398438 4.226562 12.828125 4.65625 12.828125 C 5.132812 12.828125 6.203125 12.160156 7.859375 10.828125 C 9.515625 9.492188 11.945312 6.820312 15.15625 2.8125 L 13.875 -22.375 C 13.707031 -25.039062 13.515625 -27.082031 13.296875 -28.5 C 13.085938 -29.914062 12.625 -31.050781 11.90625 -31.90625 C 11.1875 -32.769531 10.078125 -33.203125 8.578125 -33.203125 C 7.566406 -33.203125 6.632812 -33.09375 5.78125 -32.875 L 5.375 -34.3125 L 17.234375 -36.640625 C 18.035156 -35.410156 18.570312 -34.070312 18.84375 -32.625 C 19.113281 -31.1875 19.300781 -29.425781 19.40625 -27.34375 Z M 19.40625 -27.34375 "/></g></g></g><g fill="#eeede9" fill-opacity="1"><g transform="translate(96.308308, 58.30632)"><g><path d="M 19.328125 -36.640625 L 16.59375 -27.5 L 16.765625 -27.34375 C 19.222656 -30.820312 21.382812 -33.238281 23.25 -34.59375 C 25.125 -35.957031 27.078125 -36.640625 29.109375 -36.640625 C 31.617188 -36.640625 33.632812 -35.742188 35.15625 -33.953125 C 36.6875 -32.160156 37.453125 -29.609375 37.453125 -26.296875 C 37.453125 -22.234375 36.3125 -18.0625 34.03125 -13.78125 C 31.757812 -9.507812 28.859375 -5.984375 25.328125 -3.203125 C 21.804688 -0.421875 18.28125 0.96875 14.75 0.96875 C 13.6875 0.96875 12.738281 0.816406 11.90625 0.515625 C 11.082031 0.222656 10.132812 -0.238281 9.0625 -0.875 L 6.421875 8.34375 C 6.359375 8.5 6.179688 9.03125 5.890625 9.9375 C 5.597656 10.851562 5.453125 11.679688 5.453125 12.421875 C 5.453125 13.765625 5.890625 14.625 6.765625 15 C 7.648438 15.375 9.242188 15.5625 11.546875 15.5625 L 11.140625 17 L -7.21875 17 L -7.375 15.5625 C -5.664062 15.5625 -4.351562 15.375 -3.4375 15 C -2.53125 14.625 -1.820312 13.992188 -1.3125 13.109375 C -0.8125 12.222656 -0.320312 10.925781 0.15625 9.21875 L 10.1875 -25.90625 C 10.238281 -26.0625 10.410156 -26.6875 10.703125 -27.78125 C 10.992188 -28.875 11.140625 -29.878906 11.140625 -30.796875 C 11.140625 -32.347656 10.421875 -33.125 8.984375 -33.125 C 8.660156 -33.125 8.226562 -33.082031 7.6875 -33 C 7.15625 -32.914062 6.757812 -32.847656 6.5 -32.796875 L 6.421875 -34.3125 L 18.046875 -36.640625 Z M 15 -0.640625 C 17.613281 -0.640625 20.132812 -2.054688 22.5625 -4.890625 C 25 -7.722656 26.96875 -11.117188 28.46875 -15.078125 C 29.96875 -19.035156 30.71875 -22.535156 30.71875 -25.578125 C 30.71875 -27.773438 30.316406 -29.539062 29.515625 -30.875 C 28.710938 -32.207031 27.640625 -32.875 26.296875 -32.875 C 22.347656 -32.875 18.445312 -28.648438 14.59375 -20.203125 L 9.78125 -3.609375 C 11.0625 -1.628906 12.800781 -0.640625 15 -0.640625 Z M 15 -0.640625 "/></g></g></g><g fill="#eeede9" fill-opacity="1"><g transform="translate(130.789136, 58.30632)"><g><path d="M 25.984375 -36.640625 C 28.222656 -36.640625 30.101562 -36.078125 31.625 -34.953125 C 33.15625 -33.835938 33.921875 -32.394531 33.921875 -30.625 C 33.921875 -28.914062 33.117188 -26.960938 31.515625 -24.765625 C 29.910156 -22.578125 27.300781 -20.640625 23.6875 -18.953125 C 20.082031 -17.273438 15.5 -16.359375 9.9375 -16.203125 C 9.625 -15.128906 9.46875 -13.816406 9.46875 -12.265625 C 9.46875 -9.003906 10.347656 -6.640625 12.109375 -5.171875 C 13.867188 -3.703125 15.820312 -2.96875 17.96875 -2.96875 C 21.539062 -2.96875 25.175781 -4.757812 28.875 -8.34375 L 29.90625 -7.375 C 24.1875 -1.8125 18.65625 0.96875 13.3125 0.96875 C 11.125 0.96875 9.210938 0.421875 7.578125 -0.671875 C 5.941406 -1.773438 4.707031 -3.207031 3.875 -4.96875 C 3.050781 -6.738281 2.640625 -8.554688 2.640625 -10.421875 C 2.640625 -14.160156 3.722656 -18.085938 5.890625 -22.203125 C 8.054688 -26.328125 10.941406 -29.765625 14.546875 -32.515625 C 18.160156 -35.265625 21.972656 -36.640625 25.984375 -36.640625 Z M 10.421875 -17.71875 C 14.054688 -17.988281 17 -18.601562 19.25 -19.5625 C 21.4375 -20.53125 23.210938 -21.773438 24.578125 -23.296875 C 25.941406 -24.816406 26.914062 -26.3125 27.5 -27.78125 C 28.09375 -29.25 28.390625 -30.46875 28.390625 -31.4375 C 28.390625 -32.34375 28.050781 -33.179688 27.375 -33.953125 C 26.707031 -34.734375 25.757812 -35.125 24.53125 -35.125 C 22.394531 -35.125 20.320312 -34.132812 18.3125 -32.15625 C 16.3125 -30.175781 14.601562 -27.820312 13.1875 -25.09375 C 11.769531 -22.375 10.847656 -19.914062 10.421875 -17.71875 Z M 10.421875 -17.71875 "/></g></g></g><g fill="#eeede9" fill-opacity="1"><g transform="translate(160.298225, 58.30632)"><g><path d="M 17 -36.640625 L 12.109375 -15.875 C 13.066406 -18.226562 14.441406 -21.035156 16.234375 -24.296875 C 18.023438 -27.554688 19.9375 -30.425781 21.96875 -32.90625 C 24 -35.394531 25.84375 -36.640625 27.5 -36.640625 C 28.195312 -36.640625 28.8125 -36.398438 29.34375 -35.921875 C 29.882812 -35.441406 30.15625 -34.722656 30.15625 -33.765625 C 30.15625 -32.265625 29.847656 -30.738281 29.234375 -29.1875 C 28.617188 -27.632812 27.585938 -26.859375 26.140625 -26.859375 C 25.390625 -26.859375 24.878906 -27.046875 24.609375 -27.421875 C 24.347656 -27.796875 24.132812 -28.359375 23.96875 -29.109375 C 23.863281 -29.640625 23.742188 -30.023438 23.609375 -30.265625 C 23.484375 -30.503906 23.234375 -30.625 22.859375 -30.625 C 21.941406 -30.625 20.65625 -29.179688 19 -26.296875 C 17.34375 -23.410156 15.710938 -20.097656 14.109375 -16.359375 C 12.503906 -12.617188 11.4375 -9.8125 10.90625 -7.9375 L 8.65625 0 L 2.71875 0 L 9.0625 -25.90625 C 9.113281 -26.0625 9.269531 -26.710938 9.53125 -27.859375 C 9.800781 -29.015625 9.9375 -30.046875 9.9375 -30.953125 C 9.9375 -31.804688 9.695312 -32.363281 9.21875 -32.625 C 8.738281 -32.894531 8.097656 -33.03125 7.296875 -33.03125 C 6.710938 -33.03125 6.191406 -33.003906 5.734375 -32.953125 C 5.273438 -32.898438 4.914062 -32.847656 4.65625 -32.796875 L 5.046875 -34.3125 L 15.640625 -36.640625 Z M 17 -36.640625 "/></g></g></g></g></g></svg>